<svg width="430" height="56" viewBox="0 0 430 56" fill="none" xmlns="http://www.w3.org/2000/svg">
<path opacity="0.75" d="M261.605 42L268.365 27.2002H275.045L264.285 48.8398C263.085 51.2398 261.752 52.9734 260.285 54.04C258.845 55.1067 257.125 55.6406 255.125 55.6406C253.018 55.6406 251.005 55.0933 249.085 54L251.485 49.4805C252.499 50.0937 253.606 50.4004 254.806 50.4004C256.192 50.4002 257.365 49.6533 258.325 48.1602L247.125 27.2002H254.005L261.605 42ZM391.571 55.2002H385.411V32.7598H377.331V34.8799C377.331 40.3465 376.998 44.5873 376.331 47.6006C375.691 50.6136 374.744 52.6932 373.491 53.8398C372.238 54.9865 370.491 55.5605 368.251 55.5605C366.998 55.5605 365.917 55.4402 365.011 55.2002L365.411 50.1201C365.784 50.1734 366.104 50.2002 366.371 50.2002C367.278 50.2002 368.011 50.0139 368.571 49.6406C369.158 49.2406 369.691 48.4535 370.171 47.2803C370.678 46.1069 371.038 44.36 371.251 42.04C371.464 39.6934 371.571 36.6799 371.571 33V27.2002H391.571V55.2002ZM210.339 5.68066H195.339V11.3604H208.538V16.8398H195.339V22.7197H210.538V28.1523L220.96 40.2803V27.2002H227.08V40.2803L238.319 27.2002H245.64L234.96 39.3203L246.04 55.2002H238.68L230.76 43.7598L227.08 47.7598V55.2002H220.96V47.7598L217.239 43.7598L209.359 55.2002H202L213.08 39.3203L203.28 28.2002H189.219V0.200195H210.339V5.68066ZM290.58 27.2002C293.887 27.2002 296.5 28.0934 298.42 29.8799C300.34 31.6665 301.3 34.0267 301.3 36.96C301.3 40.0799 300.234 42.5069 298.101 44.2402C295.967 45.9469 293.26 46.7998 289.98 46.7998H285.3V55.2002H279.141V27.2002H290.58ZM312.019 38.2803H323.379V27.2002H329.539V55.2002H323.379V43.96H312.019V55.2002H305.859V27.2002H312.019V38.2803ZM363.529 55.2002H357.09L354.529 48.9199H342.689L340.13 55.2002H333.85L345.85 27H351.529L363.529 55.2002ZM404.44 36.7197H410.401C413.601 36.7198 416.108 37.5469 417.921 39.2002C419.734 40.8268 420.641 43.0267 420.641 45.7998C420.641 48.6798 419.681 50.974 417.761 52.6807C415.867 54.3605 413.281 55.2002 410.001 55.2002H398.281V27.2002H404.44V36.7197ZM429.921 55.2002H423.761V27.2002H429.921V55.2002ZM404.44 49.6406H409.921C412.988 49.6406 414.521 48.3331 414.521 45.7197C414.52 43.24 412.974 42 409.881 42H404.44V49.6406ZM344.89 43.4805H352.33L348.609 34.4004L344.89 43.4805ZM285.3 41.3203H290.181C291.7 41.3202 292.887 40.92 293.74 40.1201C294.62 39.3201 295.061 38.28 295.061 37C295.061 35.6401 294.62 34.5998 293.74 33.8799C292.86 33.1334 291.634 32.7598 290.061 32.7598H285.3V41.3203ZM73.832 15L80.5918 0.200195H87.2715L76.5117 21.8398C75.3117 24.2398 73.9784 25.9734 72.5117 27.04C71.0717 28.1067 69.3516 28.6406 67.3516 28.6406C65.245 28.6406 63.2314 28.0933 61.3115 27L63.7119 22.4805C64.7252 23.0937 65.8323 23.4004 67.0322 23.4004C68.4187 23.4003 69.5919 22.6533 70.5518 21.1602L59.3516 0.200195H66.2314L73.832 15ZM6.15918 11.2803H17.5195V0.200195H23.6797V28.2002H17.5195V16.96H6.15918V28.2002H0V0.200195H6.15918V11.2803ZM57.6699 28.2002H51.2305L48.6699 21.9199H36.8301L34.2705 28.2002H27.9902L39.9902 0H45.6699L57.6699 28.2002ZM96.9668 8.64062C96.9669 12.267 98.4741 14.0801 101.487 14.0801C104.02 14.08 106.06 13.4801 107.606 12.2803V0.200195H113.767V28.2002H107.606V17.7598C104.78 19.1463 102.314 19.8398 100.207 19.8398C97.3005 19.8398 95.0071 19.0536 93.3271 17.4805C91.6472 15.9072 90.8067 13.5603 90.8066 10.4404V0.200195H96.9668V8.64062ZM126.628 11.2803H137.988V0.200195H144.148V28.2002H137.988V16.96H126.628V28.2002H120.469V0.200195H126.628V11.2803ZM157.019 9.71973H162.979C166.179 9.71981 168.686 10.5469 170.499 12.2002C172.312 13.8268 173.219 16.0267 173.219 18.7998C173.219 21.6798 172.259 23.974 170.339 25.6807C168.446 27.3605 165.859 28.2002 162.579 28.2002H150.859V0.200195H157.019V9.71973ZM182.499 28.2002H176.339V0.200195H182.499V28.2002ZM157.019 22.6406H162.499C165.566 22.6406 167.099 21.3331 167.099 18.7197C167.098 16.24 165.552 15 162.459 15H157.019V22.6406ZM39.0303 16.4805H46.4707L42.75 7.40039L39.0303 16.4805Z" fill="black"/>
</svg>
