<svg width="16" height="12" viewBox="0 0 16 12" fill="none" xmlns="http://www.w3.org/2000/svg">
<path d="M15.4843 2.53562C15.4843 2.53562 15.3316 1.45731 14.8611 0.983826C14.2655 0.360665 13.5996 0.357611 13.2941 0.320954C11.1069 0.162109 7.8231 0.162109 7.8231 0.162109H7.81699C7.81699 0.162109 4.53318 0.162109 2.34601 0.320954C2.04054 0.357611 1.37462 0.360665 0.77895 0.983826C0.308525 1.45731 0.158845 2.53562 0.158845 2.53562C0.158845 2.53562 0 3.80332 0 5.06797V6.25319C0 7.51784 0.15579 8.78555 0.15579 8.78555C0.15579 8.78555 0.308525 9.86386 0.775895 10.3373C1.37156 10.9605 2.15357 10.9391 2.5018 11.0063C3.75423 11.1255 7.82005 11.1621 7.82005 11.1621C7.82005 11.1621 11.1069 11.156 13.2941 11.0002C13.5996 10.9636 14.2655 10.9605 14.8611 10.3373C15.3316 9.86386 15.4843 8.78555 15.4843 8.78555C15.4843 8.78555 15.6401 7.5209 15.6401 6.25319V5.06797C15.6401 3.80332 15.4843 2.53562 15.4843 2.53562ZM6.20411 7.69196V3.29624L10.4288 5.50174L6.20411 7.69196Z" fill="white"/>
</svg>
