<svg width="12" height="13" viewBox="0 0 12 13" fill="none" xmlns="http://www.w3.org/2000/svg">
<path fillRule="evenodd" clipRule="evenodd" d="M0 6.16211C0 2.8484 2.68629 0.162109 6 0.162109C9.31371 0.162109 12 2.8484 12 6.16211C12 9.47582 9.31371 12.1621 6 12.1621C2.68629 12.1621 0 9.47582 0 6.16211ZM5.99592 6.25844C6.88069 6.25844 7.59991 5.5641 7.59991 4.71051C7.59991 3.85664 6.88069 3.16211 5.99592 3.16211C5.11135 3.16211 4.39194 3.85664 4.39194 4.71051C4.39194 5.5641 5.11135 6.25844 5.99592 6.25844ZM6.64899 7.52218C6.97549 7.45039 7.29037 7.32569 7.5804 7.14986C7.79989 7.01627 7.86601 6.73622 7.72772 6.52435C7.58952 6.31202 7.29958 6.2481 7.07971 6.38169C6.42269 6.7805 5.57679 6.78041 4.92015 6.38169C4.70028 6.2481 4.41025 6.31202 4.27234 6.52435C4.13404 6.73641 4.19998 7.01627 4.41946 7.14986C4.70949 7.32551 5.02438 7.45039 5.35087 7.52218L4.45411 8.38782C4.2708 8.56495 4.2708 8.85213 4.4543 9.02926C4.54615 9.11773 4.6663 9.16202 4.78646 9.16202C4.90681 9.16202 5.02716 9.11773 5.119 9.02926L5.99984 8.17864L6.88143 9.02926C7.06474 9.20639 7.36216 9.20639 7.54566 9.02926C7.72935 8.85213 7.72935 8.56476 7.54566 8.38782L6.64899 7.52218Z" fill="white"/>
<path fillRule="evenodd" clipRule="evenodd" d="M5.99592 4.06952C6.36215 4.06952 6.66005 4.35699 6.66005 4.71051C6.66005 5.06374 6.36215 5.35139 5.99592 5.35139C5.62998 5.35139 5.3318 5.06374 5.3318 4.71051C5.3318 4.35699 5.62998 4.06952 5.99592 4.06952Z" fill="white"/>
</svg>
