<svg width="15" height="13" viewBox="0 0 15 13" fill="none" xmlns="http://www.w3.org/2000/svg">
<path d="M5.04439 12.3498C10.3261 12.3498 13.2158 7.97287 13.2158 4.17838C13.2158 4.05533 13.2131 3.92955 13.2076 3.8065C13.7697 3.39998 14.2548 2.89644 14.6401 2.31955C14.1166 2.55248 13.5608 2.7046 12.9916 2.77072C13.5909 2.41149 14.0396 1.84715 14.2546 1.18232C13.6908 1.51645 13.0742 1.75215 12.4313 1.87932C11.9981 1.41904 11.4254 1.11428 10.8016 1.01216C10.1779 0.910034 9.53783 1.01624 8.98049 1.31435C8.42314 1.61246 7.97952 2.08587 7.71821 2.66139C7.45691 3.23691 7.39247 3.88248 7.53486 4.4983C6.39326 4.44101 5.27643 4.14445 4.25679 3.62785C3.23715 3.11125 2.33746 2.38613 1.61604 1.49951C1.24937 2.13168 1.13717 2.87975 1.30224 3.59168C1.46731 4.30361 1.89726 4.92597 2.50471 5.33228C2.04867 5.31781 1.60262 5.19502 1.20342 4.97408V5.00963C1.20301 5.67305 1.43236 6.31613 1.85248 6.82957C2.27261 7.34301 2.85758 7.69512 3.50795 7.82603C3.0855 7.94162 2.64213 7.95846 2.21213 7.87525C2.39565 8.4458 2.75272 8.94481 3.2335 9.30265C3.71428 9.66049 4.29479 9.85931 4.894 9.87135C3.87672 10.6704 2.62007 11.1039 1.32646 11.1018C1.09705 11.1015 0.867869 11.0874 0.640137 11.0597C1.9543 11.9028 3.48303 12.3506 5.04439 12.3498Z" fill="white"/>
</svg>
