<?xml version="1.0" encoding="UTF-8"?>
<svg xmlns="http://www.w3.org/2000/svg" xmlns:xlink="http://www.w3.org/1999/xlink" width="60px" height="69px" viewBox="0 0 60 68" version="1.1">
<g id="surface1">
<path style=" stroke:none;fillRule:nonzero;fill:rgb(0%,0%,0%);fillOpacity:1;" d="M 38.578125 7.542969 C 36.398438 8.394531 32.46875 9.910156 29.832031 10.929688 C 18.738281 15.234375 16.367188 16.15625 15.695312 16.394531 C 15 16.675781 15.046875 16.699219 17.96875 17.835938 C 19.625 18.5 21.132812 19.019531 21.324219 19.042969 C 21.613281 19.066406 28.730469 14.808594 39.488281 8.160156 C 40.566406 7.472656 41.453125 6.976562 41.453125 7.023438 C 41.453125 7.097656 37.214844 9.980469 32.0625 13.460938 C 21.351562 20.65625 20.007812 21.648438 18.808594 23.234375 C 15.335938 27.941406 15.167969 35.015625 18.476562 40.058594 C 20.390625 42.992188 23.242188 45.167969 26.714844 46.351562 C 28.347656 46.898438 29.039062 47.015625 31.390625 47.015625 C 34.457031 47.039062 35.65625 46.777344 38.21875 45.59375 C 42.414062 43.632812 45.527344 39.796875 46.605469 35.253906 C 47.109375 33.171875 46.941406 29.03125 46.269531 27.207031 C 45.238281 24.296875 43.132812 21.292969 41.214844 19.941406 L 40.519531 19.449219 L 35.007812 23.136719 L 34.984375 33.125 L 34.984375 43.132812 L 34.335938 43.277344 C 33.953125 43.347656 33.476562 43.464844 33.257812 43.535156 C 32.851562 43.632812 32.828125 43.0625 32.828125 34.167969 L 32.828125 24.675781 L 31.507812 25.527344 L 30.191406 26.402344 L 30.191406 43.609375 L 29.546875 43.464844 C 27.890625 43.109375 28.035156 43.890625 28.035156 35.539062 L 28.035156 27.964844 L 27.363281 28.367188 C 25.496094 29.457031 25.640625 28.839844 25.566406 35.75 C 25.542969 39.160156 25.445312 41.949219 25.351562 41.949219 C 25.253906 41.949219 24.417969 41.265625 23.53125 40.414062 C 19.503906 36.671875 18.523438 31.46875 20.917969 26.59375 C 22.1875 24.035156 21.972656 24.203125 35.367188 15.117188 L 40.566406 11.566406 L 41.359375 9.863281 C 41.789062 8.917969 42.363281 7.710938 42.605469 7.1875 C 43.035156 6.335938 43.058594 5.960938 42.675781 5.984375 C 42.605469 6.007812 40.757812 6.691406 38.578125 7.542969 Z M 40.085938 23.777344 C 40.832031 24.535156 41.453125 25.316406 41.453125 25.527344 C 41.453125 25.71875 41.09375 26.355469 40.640625 26.949219 C 39.824219 27.988281 39.824219 28.015625 40.183594 28.9375 C 40.519531 29.742188 40.6875 29.882812 41.429688 30 C 43.5625 30.355469 43.46875 30.238281 43.394531 32.484375 C 43.324219 34.140625 43.132812 34.613281 42.53125 34.613281 C 41.070312 34.613281 40.566406 34.875 40.160156 35.867188 C 39.777344 36.839844 39.777344 36.839844 40.496094 37.738281 L 41.238281 38.640625 L 40.640625 39.417969 C 40.304688 39.84375 39.609375 40.53125 39.082031 40.957031 C 38.316406 41.574219 38.097656 41.644531 37.738281 41.40625 C 37.378906 41.121094 37.355469 40.390625 37.523438 31.46875 L 37.691406 21.863281 L 38.195312 22.121094 C 38.484375 22.261719 39.320312 23.019531 40.085938 23.777344 Z M 40.085938 23.777344 "/>
<path style=" stroke:none;fillRule:nonzero;fill:rgb(0%,0%,0%);fillOpacity:1;" d="M 31.941406 19.328125 C 27.292969 22.476562 23.316406 25.125 23.121094 25.269531 C 22.8125 25.457031 22.761719 25.882812 22.8125 27.421875 L 22.882812 29.335938 L 31.148438 23.753906 C 35.703125 20.679688 39.65625 18.003906 39.96875 17.789062 C 40.46875 17.4375 40.519531 17.246094 40.445312 15.519531 L 40.375 13.625 Z M 31.941406 19.328125 "/>
<path style=" stroke:none;fillRule:nonzero;fill:rgb(0%,0%,0%);fillOpacity:1;" d="M 51.207031 51.890625 C 50.078125 52.007812 50.03125 52.054688 49.601562 53.074219 C 48.808594 54.941406 47.445312 58.730469 47.445312 59.035156 C 47.421875 59.199219 46.964844 58.160156 46.390625 56.738281 C 45.816406 55.296875 45.121094 53.640625 44.855469 53 L 44.351562 51.890625 L 41.742188 51.890625 L 42.269531 53 C 42.578125 53.640625 42.984375 54.515625 43.203125 54.964844 C 43.417969 55.417969 44.183594 57.070312 44.90625 58.609375 C 46.175781 61.285156 46.222656 61.472656 45.886719 61.992188 C 45.597656 62.417969 45.285156 62.539062 44.570312 62.539062 C 43.730469 62.539062 43.609375 62.609375 43.46875 63.175781 C 43.394531 63.554688 43.277344 64.007812 43.226562 64.21875 C 43.082031 64.714844 44.378906 64.953125 45.671875 64.667969 C 47.203125 64.335938 47.851562 63.34375 50.296875 57.355469 C 51.539062 54.351562 52.5 51.84375 52.453125 51.816406 C 52.40625 51.792969 51.828125 51.816406 51.207031 51.890625 Z M 51.207031 51.890625 "/>
<path style=" stroke:none;fillRule:nonzero;fill:rgb(0%,0%,0%);fillOpacity:1;" d="M 10.542969 58.300781 L 10.542969 64.738281 L 13.753906 64.621094 C 16.558594 64.527344 17.109375 64.429688 18.113281 63.933594 C 20.582031 62.679688 20.894531 59.367188 18.617188 58.183594 L 17.804688 57.734375 L 18.523438 57.09375 C 19.097656 56.597656 19.265625 56.21875 19.359375 55.25 C 19.601562 52.71875 18.210938 51.914062 13.609375 51.890625 L 10.542969 51.890625 Z M 16.484375 54.160156 C 16.84375 54.398438 17.015625 54.753906 17.015625 55.320312 C 17.015625 56.386719 16.292969 56.859375 14.378906 57.023438 L 12.9375 57.167969 L 12.9375 53.78125 L 14.449219 53.78125 C 15.40625 53.78125 16.125 53.902344 16.484375 54.160156 Z M 17.15625 59.484375 C 17.46875 59.792969 17.730469 60.289062 17.730469 60.644531 C 17.730469 62.015625 16.4375 62.773438 14.089844 62.773438 L 12.9375 62.773438 L 12.9375 58.683594 L 14.761719 58.820312 C 16.199219 58.917969 16.699219 59.058594 17.15625 59.484375 Z M 17.15625 59.484375 "/>
<path style=" stroke:none;fillRule:nonzero;fill:rgb(0%,0%,0%);fillOpacity:1;" d="M 22.453125 58.207031 L 22.5 64.550781 L 24.800781 64.550781 L 24.871094 59.152344 L 24.921875 53.78125 L 30.429688 53.78125 L 30.429688 51.890625 L 22.40625 51.890625 Z M 22.453125 58.207031 "/>
<path style=" stroke:none;fillRule:nonzero;fill:rgb(0%,0%,0%);fillOpacity:1;" d="M 31.390625 52.835938 L 31.390625 53.78125 L 35.222656 53.78125 L 35.222656 64.691406 L 36.375 64.621094 L 37.5 64.550781 L 37.570312 59.152344 L 37.621094 53.78125 L 41.453125 53.78125 L 41.453125 51.890625 L 31.390625 51.890625 Z M 31.390625 52.835938 "/>
</g>
</svg>
